<svg xmlns="http://www.w3.org/2000/svg" xmlns:xlink="http://www.w3.org/1999/xlink" viewBox="0 0 152 152"><defs><style>.cls-1{fill:#3a67fa;}.cls-2{fill:url(#linear-gradient);}.cls-3{fill:url(#linear-gradient-2);}.cls-4{fill:url(#linear-gradient-3);}.cls-5{fill:url(#linear-gradient-4);}.cls-6{fill:#fff;}</style><linearGradient id="linear-gradient" x1="46.674" y1="58.776" x2="58.749" y2="70.851" gradientUnits="userSpaceOnUse"><stop offset="0" stop-color="#0d47a1"/><stop offset="1" stop-color="#0d47a1" stop-opacity="0"/></linearGradient><linearGradient id="linear-gradient-2" x1="46.498" y1="76.832" x2="62.184" y2="92.518" xlink:href="#linear-gradient"/><linearGradient id="linear-gradient-3" x1="93.392" y1="71.75" x2="101.511" y2="79.869" xlink:href="#linear-gradient"/><linearGradient id="linear-gradient-4" x1="59.353" y1="64.647" x2="127.091" y2="132.386" xlink:href="#linear-gradient"/></defs><g id="Layer_2" data-name="Layer 2"><g id="Color"><g id="_16.Behance" data-name="16.Behance"><circle id="Background" class="cls-1" cx="76" cy="76" r="76"/><g id="Shadow"><path class="cls-2" d="M58.53,69.24H45.06V60.39H58.53a4.425,4.425,0,1,1,0,8.85Z"/><path class="cls-3" d="M60.97,91.08H45.06V78.27H60.97a6.405,6.405,0,1,1,0,12.81Z"/><path class="cls-4" d="M105.38,76H89.52a9.175,9.175,0,0,1,15.86,0Z"/><path class="cls-5" d="M106.13,53.69a1.36,1.36,0,0,1,.4.97v4.12a1.379,1.379,0,0,1-1.38,1.39H88.72a1.342,1.342,0,0,1-.93-.37l3.65,3.65a17.858,17.858,0,0,1,6.01-1.04c10.21,0,18.52,8.58,18.52,19.12v.38a1.81,1.81,0,0,1-1.81,1.81H88.19a9.668,9.668,0,0,0,9.26,7.9,8.578,8.578,0,0,0,6.22-2.47.791.791,0,0,1,.54-.22l9.1.02a.79.79,0,0,1,.71,1.13,20.014,20.014,0,0,1-1.17,2.07,18.337,18.337,0,0,1-15.4,8.5c-10.21,0-18.52-8.58-18.52-19.12A19.46,19.46,0,0,1,82.68,70L68.34,55.66a13.332,13.332,0,0,1,1.52,16.4,15.432,15.432,0,0,1-9.09,28.05h-23a1.7,1.7,0,0,1-1.07-.38v.01l51.31,51.31A76.092,76.092,0,0,0,149.15,96.7ZM82.74,69.93l-.02.02c-.01.01-.02.03-.04.05l.08.08Z"/></g><g id="Icon"><path class="cls-6" d="M69.861,72.063a13.379,13.379,0,0,0,2.128-7.479,13.57,13.57,0,0,0-13.63-13.23H37.773A1.746,1.746,0,0,0,36.028,53.1V98.369a1.746,1.746,0,0,0,1.745,1.746H60.768a15.435,15.435,0,0,0,9.093-28.052Zm-24.8-11.678H58.535a4.426,4.426,0,0,1,0,8.852H45.059Zm15.909,30.7H45.059V78.268H60.968a6.408,6.408,0,1,1,0,12.816Z"/><path class="cls-6" d="M115.972,81.529c0-10.54-8.308-19.116-18.52-19.116s-18.52,8.576-18.52,19.116,8.308,19.117,18.52,19.117a18.351,18.351,0,0,0,15.4-8.5,19.211,19.211,0,0,0,1.167-2.072.784.784,0,0,0-.707-1.123l-9.1-.023a.77.77,0,0,0-.537.223,8.616,8.616,0,0,1-6.221,2.462,9.656,9.656,0,0,1-9.262-7.895H114.16a1.813,1.813,0,0,0,1.812-1.813v-.379ZM97.452,71.444A9.359,9.359,0,0,1,105.383,76H89.52a9.361,9.361,0,0,1,7.932-4.559Z"/><path class="cls-6" d="M105.148,60.17H88.721a1.389,1.389,0,0,1-1.388-1.388V54.661a1.388,1.388,0,0,1,1.388-1.387h16.427a1.387,1.387,0,0,1,1.387,1.387v4.121a1.387,1.387,0,0,1-1.387,1.388Z"/></g></g></g></g></svg>