<svg xmlns="http://www.w3.org/2000/svg" xmlns:xlink="http://www.w3.org/1999/xlink" viewBox="0 0 152 152"><defs><style>.cls-1{fill:#4a6ea9;}.cls-2{fill:url(#linear-gradient);}.cls-3{fill:url(#linear-gradient-2);}.cls-4{fill:#fff;}</style><linearGradient id="linear-gradient" x1="69.875" y1="63.845" x2="132.753" y2="126.723" gradientUnits="userSpaceOnUse"><stop offset="0" stop-color="#0d47a1"/><stop offset="1" stop-color="#0d47a1" stop-opacity="0"/></linearGradient><linearGradient id="linear-gradient-2" x1="57.805" y1="78.065" x2="69.205" y2="89.465" xlink:href="#linear-gradient"/></defs><g id="Layer_2" data-name="Layer 2"><g id="Color"><g id="_01.Facebook" data-name="01.Facebook"><circle id="Background" class="cls-1" cx="76" cy="76" r="76"/><g id="Shadow"><path class="cls-2" d="M150.69,90.06a76.087,76.087,0,0,1-51.02,58.18L67.09,115.66a2.5,2.5,0,0,0,1.45.34H81.06c1.72,0,2.26-.55,2.26-2.29V81.17H94.95c1.65-.01,2.17-.52,2.17-2.15q.015-6.03.01-12.06c0-1.65-.56-2.21-2.2-2.21H83.35c0-3.08-.03-6.05.03-9.02,0-2.8,1.43-4.13,4.14-4.13,2.68-.1,5.37-.09,8.06-.11,1.44-.02,2.04-.6,2.04-2.03.01-3.8.01-7.61,0-11.41a2.121,2.121,0,0,0-.45-1.5Z"/><path class="cls-3" d="M66.44,81.17V92.23l-11.4-11.4a2.622,2.622,0,0,0,1.46.34Z"/></g><path id="Icon" class="cls-4" d="M66.437,81.166c-.313,0-6.9,0-9.938,0-1.564,0-2.122-.563-2.122-2.137q0-6.065,0-12.129c0-1.555.591-2.147,2.135-2.149,3.037,0,9.589,0,9.925,0,0-.277,0-6.114,0-8.8a21.948,21.948,0,0,1,2.73-11.261,16.579,16.579,0,0,1,8.93-7.419A22.074,22.074,0,0,1,85.75,36q4.917,0,9.834.006c1.409,0,2.035.626,2.037,2.045q.009,5.7,0,11.408c0,1.434-.6,2.01-2.043,2.026-2.687.028-5.376.011-8.06.118-2.711,0-4.136,1.324-4.136,4.13-.065,2.969-.027,5.939-.027,9.016.254,0,7.968,0,11.574,0,1.639,0,2.2.563,2.2,2.21q0,6.032,0,12.064c0,1.622-.528,2.141-2.176,2.142-3.606,0-11.291,0-11.626,0,0,.33,0,21.99,0,32.546,0,1.734-.546,2.287-2.257,2.287q-6.262,0-12.523,0c-1.513,0-2.1-.588-2.1-2.1C66.437,103.3,66.437,81.538,66.437,81.166Z"/></g></g></g></svg>