<svg xmlns="http://www.w3.org/2000/svg" xmlns:xlink="http://www.w3.org/1999/xlink" viewBox="0 0 152 152"><defs><style>.cls-1{fill:#4875b4;}.cls-2{fill:url(#linear-gradient);}.cls-3{fill:url(#linear-gradient-2);}.cls-4{fill:#fff;}</style><linearGradient id="linear-gradient" x1="78.393" y1="64.407" x2="82.148" y2="68.162" gradientUnits="userSpaceOnUse"><stop offset="0" stop-color="#0d47a1"/><stop offset="1" stop-color="#01579b" stop-opacity="0"/></linearGradient><linearGradient id="linear-gradient-2" x1="37.705" y1="54.945" x2="121.117" y2="138.357" xlink:href="#linear-gradient"/></defs><g id="Layer_2" data-name="Layer 2"><g id="Color"><g id="_10.Linkedin" data-name="10.Linkedin"><circle id="Background" class="cls-1" cx="76" cy="76" r="76"/><g id="Shadow"><path class="cls-2" d="M80.44,69.87h-.23V62.59l3.33,3.32A14.822,14.822,0,0,0,80.44,69.87Z"/><path class="cls-3" d="M147.1,102.89A76.03,76.03,0,0,1,76,152H73.31l-.05-.05L37.32,116H53.9V62.59H49.03l-9.49-9.48A9.505,9.505,0,0,0,45.6,55.3a9.684,9.684,0,0,0,9.61-9.7,9.546,9.546,0,0,0-1.95-5.79L76.05,62.59H64.3V116H80.86V89.55c0-6.96,1.32-13.7,9.95-13.7,8.5,0,8.62,7.95,8.62,14.15v26H116V86.66c0-8.01-.96-14.99-4.73-19.6Z"/></g><g id="Icon"><path class="cls-4" d="M115.984,116v0H116V86.658c0-14.355-3.09-25.413-19.872-25.413-8.067,0-13.481,4.427-15.692,8.624h-.233V62.585H64.3V116H80.864V89.552c0-6.965,1.32-13.7,9.944-13.7,8.5,0,8.625,7.948,8.625,14.145V116Z"/><path class="cls-4" d="M37.316,62.589H53.9V116H37.316Z"/><path class="cls-4" d="M45.6,36A9.653,9.653,0,1,0,55.211,45.6,9.609,9.609,0,0,0,45.6,36Z"/></g></g></g></g></svg>