<svg xmlns="http://www.w3.org/2000/svg" xmlns:xlink="http://www.w3.org/1999/xlink" viewBox="0 0 152 152"><defs><style>.cls-1{fill:#03a9f4;}.cls-2{fill:url(#linear-gradient);}.cls-3{fill:#fff;}</style><linearGradient id="linear-gradient" x1="68.058" y1="65.652" x2="130.941" y2="128.536" gradientUnits="userSpaceOnUse"><stop offset="0" stop-color="#1976d2"/><stop offset="1" stop-color="#1976d2" stop-opacity="0"/></linearGradient></defs><g id="Layer_2" data-name="Layer 2"><g id="Color"><g id="_04.Twitter" data-name="04.Twitter"><circle id="Background" class="cls-1" cx="76" cy="76" r="76"/><path id="Shadow" class="cls-2" d="M152,76a76,76,0,0,1-76,76H71.83L26.77,106.94A56.791,56.791,0,0,0,57.73,116c37.15,0,57.46-30.77,57.46-57.44,0-.89-.03-1.75-.07-2.61a40.16,40.16,0,0,0,10.11-10.48,42.02,42.02,0,0,1-11.63,3.19,20.063,20.063,0,0,0,8.88-11.16L151.4,66.42A75.818,75.818,0,0,1,152,76Z"/><path id="Icon" class="cls-3" d="M125.233,45.469A42.062,42.062,0,0,1,113.6,48.657a20.076,20.076,0,0,0,8.88-11.157,40.353,40.353,0,0,1-12.8,4.886,20.185,20.185,0,0,0-34.918,13.8,20.739,20.739,0,0,0,.468,4.6A57.135,57.135,0,0,1,33.623,39.678a20.193,20.193,0,0,0,6.2,26.98,19.928,19.928,0,0,1-9.12-2.486v.221A20.279,20.279,0,0,0,46.879,84.228a20.158,20.158,0,0,1-5.293.665,17.841,17.841,0,0,1-3.822-.345A20.38,20.38,0,0,0,56.627,98.61,40.56,40.56,0,0,1,31.6,107.22a37.833,37.833,0,0,1-4.831-.277A56.833,56.833,0,0,0,57.735,116c37.146,0,57.454-30.771,57.454-57.443,0-.892-.03-1.754-.073-2.609A40.267,40.267,0,0,0,125.233,45.469Z"/></g></g></g></svg>